<svg width="102" height="100" viewBox="0 0 102 100" fill="none" xmlns="http://www.w3.org/2000/svg">
<g clip-path="url(#clip0_1844_1495)">
<path d="M50.9971 100.055C58.1768 100.055 63.9971 77.6689 63.9971 50.0547C63.9971 22.4404 58.1768 0.0546875 50.9971 0.0546875C43.8174 0.0546875 37.9971 22.4404 37.9971 50.0547C37.9971 77.6689 43.8174 100.055 50.9971 100.055Z" fill="#262626"/>
<path d="M63.9971 0.0546875C70.6247 0.0546875 75.9971 22.4408 75.9971 50.0547C75.9971 77.6685 70.6247 100.055 63.9971 100.055V0.0546875Z" fill="#262626"/>
<path d="M77.9971 100.054C83.1276 95.4915 86.9971 75.066 86.9971 50.5541C86.9971 26.0423 83.1276 5.61682 77.9971 1.05469V100.055V100.054Z" fill="#262626"/>
<path d="M89.9971 97.0547C93.5055 89.8313 95.9971 71.5152 95.9971 50.0547C95.9971 28.5942 93.5055 10.2781 89.9971 3.05469V97.0536V97.0547Z" fill="#262626"/>
<path d="M99.9971 89.0536C101.216 79.8655 101.997 65.8102 101.997 50.0542C101.997 34.2981 101.216 20.2428 99.9971 11.0547V89.0547V89.0536Z" fill="#262626"/>
<path d="M37.9971 100.055C31.3694 100.055 25.9971 77.6685 25.9971 50.0547C25.9971 22.4408 31.3694 0.0546875 37.9971 0.0546875V100.055Z" fill="#262626"/>
<path d="M23.9971 1.05469C18.8666 5.61686 14.9971 26.0426 14.9971 50.5547C14.9971 75.0668 18.8666 95.4925 23.9971 100.055V1.05469Z" fill="#262626"/>
<path d="M11.9971 3.05469C8.48861 10.2781 5.99707 28.5942 5.99707 50.0547C5.99707 71.5152 8.48861 89.8313 11.9971 97.0547V3.05469Z" fill="#262626"/>
<path d="M1.99707 11.0547C0.777749 20.2429 -0.00292969 34.2984 -0.00292969 50.0547C-0.00292969 65.8109 0.777749 79.8665 1.99707 89.0547V11.0547Z" fill="#262626"/>
</g>
<defs>
<clipPath id="clip0_1844_1495">
<rect width="102" height="100" fill="white"/>
</clipPath>
</defs>
</svg>
