<svg width="191" height="33" viewBox="0 0 191 33" fill="none" xmlns="http://www.w3.org/2000/svg">
<g clip-path="url(#clip0_1912_5330)">
<path d="M111.651 26.0395L111.293 25.1094H110.944C103.711 29.7224 95.5085 22.4681 98.6971 14.7326C100.643 10.0126 107.123 8.01537 111.177 11.4054C110.75 9.34532 115.321 9.82894 115.321 10.5939V25.4559C115.321 25.5326 115.008 25.8093 115.083 26.0372H111.648L111.651 26.0395ZM105.548 13.5561C100.819 14.3559 100.565 21.7171 105.544 22.7355C112.931 24.2468 113.334 12.2377 105.548 13.5561Z" fill="#262626"/>
<path d="M71.448 9.84934C84.4845 8.32175 84.5035 28.2292 71.2062 26.4458C61.8348 25.1903 61.7731 10.984 71.448 9.84934ZM69.4495 14.7437C65.1301 18.6824 70.9336 25.467 75.6442 21.8608C80.6748 18.0104 74.3118 10.3074 69.4495 14.7437Z" fill="#262626"/>
<path d="M85.4755 32.309C85.4375 31.9626 85.2313 31.6929 85.2834 31.3208C85.4968 29.7979 87.7466 26.6102 87.5641 25.0547L81.6729 10.8298C81.7345 10.0044 84.7761 9.90443 85.466 10.3741C86.0278 10.7554 88.7471 18.105 89.2757 19.4117C89.4109 19.7465 89.4962 20.1023 89.5033 20.465L90.0296 20.1674L93.8986 10.488C94.5387 9.77655 96.7861 10.4787 97.7937 10.2462L89.0292 32.3067H85.4755V32.309Z" fill="#262626"/>
<path d="M131.43 20.6944C132.037 20.7874 131.797 20.6409 131.923 20.3689C133.398 17.1719 134.232 13.6401 135.802 10.4686C136.133 10.1315 140.645 9.69207 139.607 11.4057L130.916 32.2664L130.607 32.3222C129.78 32.1711 127.45 32.7198 127.194 31.6758L129.531 25.4725L123.773 11.594L123.711 10.4617C123.969 10.1106 127.167 10.1059 127.528 10.4686L131.432 20.6944H131.43Z" fill="#262626"/>
<path d="M190.133 11.449C190.48 12.0256 189.166 13.9973 188.588 14.3972C188.038 14.553 186.411 13.4602 185.501 13.3207C184.309 13.137 181.936 12.9556 181.753 14.539C181.672 15.2505 182.343 15.5969 182.91 15.8573C185.997 17.271 191.191 16.5479 190.89 21.7328C190.582 27.048 183.571 27.3293 179.69 25.7506C176.362 24.3951 177.429 23.3813 179.494 21.2632C181.077 22.049 182.13 23.1976 184.147 23.2581C185.349 23.293 187.839 22.449 186.874 21.0307C185.513 19.0311 179.482 20.3541 178.209 16.2898C176.435 10.6235 182.872 8.92855 187.331 10.1306C187.72 10.2353 190.02 11.2629 190.131 11.449" fill="#262626"/>
<path d="M167.852 9.83906C170.086 9.53913 172.62 10.0716 174.424 11.4038C177.475 13.6592 176.043 14.3335 173.232 15.5797C172.478 15.5611 171.349 13.0965 168.322 13.5522C162.118 14.4823 163.751 24.4825 170.674 22.5899C171.937 22.2434 172.357 21.2715 173.476 20.7763C174.268 21.0437 176.574 22.4225 176.349 23.2525C176.001 24.529 172.378 26.2612 171.048 26.4379C158.32 28.1282 157.042 11.2899 167.855 9.83674" fill="#262626"/>
<path d="M147.775 10.2421H152.04C151.884 11.3419 152.422 12.8532 151.684 13.7251H147.775V21.7374C147.775 23.1417 151.132 22.1838 152.007 22.8162L151.827 25.9411C151.414 26.455 148.906 26.3201 148.162 26.2387C141.834 25.5459 144.596 18.3776 143.954 14.1087L143.598 13.76L141.066 13.7367C140.499 13.6088 140.559 10.7978 140.943 10.277C141.469 9.95381 143.434 10.6816 143.989 9.89568V5.13389C144.641 4.92231 147.78 4.58052 147.78 5.48266V10.2421H147.775Z" fill="#262626"/>
<path d="M121.719 2.81482V25.6891C121.719 26.3494 118.248 26.1239 118.032 25.8193L117.928 25.4566L118.283 2.8125H121.719V2.81482Z" fill="#262626"/>
<path d="M53.4971 10.2449C54.7275 9.86356 56.0337 9.94029 57.2618 10.2705L57.2902 12.1026C58.8715 10.5774 61.0999 9.4311 63.3426 10.2309L63.2336 13.4047C62.8756 13.8441 60.9316 13.8092 60.1327 14.0813C59.2437 14.3835 58.146 15.3275 57.7833 16.1901C57.6624 16.4784 57.2878 17.8224 57.2878 18.027V26.0392H53.8527L53.4971 25.6905V10.2449Z" fill="#262626"/>
<path d="M158.435 26.0375C157.617 26.3025 154.855 26.5839 154.566 25.7468L154.519 11.0499C154.623 9.81298 157.624 10.0618 158.435 10.5942V26.0375Z" fill="#262626"/>
<path d="M156.008 3.32079C159.73 2.68139 159.775 8.74058 156.06 8.06165C153.246 7.54548 153.486 3.75326 156.008 3.32079Z" fill="#262626"/>
<path d="M3.49868 26.9309C1.65663 26.9309 0.163086 25.4661 0.163086 23.6595V13.7011C0.163086 11.8945 1.65663 10.4297 3.49868 10.4297C5.34072 10.4297 6.83427 11.8945 6.83427 13.7011V23.6595C6.83427 25.4661 5.34072 26.9309 3.49868 26.9309Z" fill="#2E3192"/>
<path d="M12.2614 26.9304C10.4193 26.9304 8.92578 25.4656 8.92578 23.659V16.9511C8.92578 15.1445 10.4193 13.6797 12.2614 13.6797C14.1034 13.6797 15.597 15.1445 15.597 16.9511V23.659C15.597 25.4656 14.1034 26.9304 12.2614 26.9304Z" fill="#2E3192"/>
<path d="M38.9899 26.9309C37.1478 26.9309 35.6543 25.4661 35.6543 23.6595V13.7011C35.6543 11.8945 37.1478 10.4297 38.9899 10.4297C40.8319 10.4297 42.3255 11.8945 42.3255 13.7011V23.6595C42.3255 25.4661 40.8319 26.9309 38.9899 26.9309Z" fill="#2E3192"/>
<path d="M29.9782 26.9304C28.1361 26.9304 26.6426 25.4656 26.6426 23.659V16.9511C26.6426 15.1445 28.1361 13.6797 29.9782 13.6797C31.8202 13.6797 33.3138 15.1445 33.3138 16.9511V23.659C33.3138 25.4656 31.8202 26.9304 29.9782 26.9304Z" fill="#2E3192"/>
<path d="M21.1491 26.9334C19.307 26.9334 17.8135 25.4686 17.8135 23.662V11.4902C17.8135 9.68356 19.307 8.21875 21.1491 8.21875C22.9911 8.21875 24.4847 9.68356 24.4847 11.4902V23.662C24.4847 25.4686 22.9911 26.9334 21.1491 26.9334Z" fill="#2E3192"/>
<path d="M6.95138 4.86208C6.95138 6.71751 5.41753 8.22416 3.52333 8.22416C1.62914 8.22416 0.0976562 6.71751 0.0976562 4.86208C0.0976562 3.00666 1.63151 1.5 3.52333 1.5C5.41516 1.5 6.95138 3.00433 6.95138 4.86208Z" fill="#2E3192"/>
<path d="M24.5748 3.44802C24.5748 5.30344 23.041 6.8101 21.1468 6.8101C19.2526 6.8101 17.7188 5.30577 17.7188 3.44802C17.7188 1.59027 19.255 0.0859375 21.1492 0.0859375C23.0434 0.0859375 24.5772 1.59027 24.5772 3.44802" fill="#2E3192"/>
<path d="M42.4157 4.86208C42.4157 6.71751 40.8818 8.22416 38.9876 8.22416C37.0934 8.22416 35.5596 6.71983 35.5596 4.86208C35.5596 3.00433 37.0934 1.5 38.9876 1.5C40.8818 1.5 42.4157 3.00433 42.4157 4.86208Z" fill="#2E3192"/>
</g>
<defs>
<clipPath id="clip0_1912_5330">
<rect width="191" height="32.3231" fill="white"/>
</clipPath>
</defs>
</svg>
