<svg width="500" height="500" viewBox="0 0 500 500" fill="none" xmlns="http://www.w3.org/2000/svg">
<rect width="500" height="500" rx="250" fill="#2E3192"/>
<g clip-path="url(#clip0_1436_1548)">
<g clip-path="url(#clip1_1436_1548)">
<path d="M116.212 339.954C102.561 339.954 91.4918 329.098 91.4918 315.709V241.907C91.4918 228.518 102.561 217.662 116.212 217.662C129.864 217.662 140.932 228.518 140.932 241.907V315.709C140.932 329.098 129.864 339.954 116.212 339.954Z" fill="white"/>
<path d="M181.15 339.955C167.498 339.955 156.429 329.099 156.429 315.71V265.998C156.429 252.609 167.498 241.753 181.15 241.753C194.801 241.753 205.87 252.609 205.87 265.998V315.71C205.87 329.099 194.801 339.955 181.15 339.955Z" fill="white"/>
<path d="M379.245 339.954C365.594 339.954 354.525 329.098 354.525 315.709V241.907C354.525 228.518 365.594 217.662 379.245 217.662C392.897 217.662 403.965 228.518 403.965 241.907V315.709C403.965 329.098 392.897 339.954 379.245 339.954Z" fill="white"/>
<path d="M312.446 339.955C298.794 339.955 287.726 329.099 287.726 315.71V265.998C287.726 252.609 298.794 241.753 312.446 241.753C326.097 241.753 337.166 252.609 337.166 265.998V315.71C337.166 329.099 326.097 339.955 312.446 339.955Z" fill="white"/>
<path d="M247.018 339.954C233.366 339.954 222.297 329.098 222.297 315.709V225.502C222.297 212.114 233.366 201.258 247.018 201.258C260.669 201.258 271.738 212.114 271.738 225.502V315.709C271.738 329.098 260.669 339.954 247.018 339.954Z" fill="white"/>
<path d="M141.793 176.359C141.793 190.11 130.426 201.276 116.388 201.276C102.35 201.276 90.9999 190.11 90.9999 176.359C90.9999 162.608 102.367 151.442 116.388 151.442C130.408 151.442 141.793 162.591 141.793 176.359Z" fill="white"/>
<path d="M272.404 165.917C272.404 179.667 261.037 190.833 246.999 190.833C232.961 190.833 221.593 179.685 221.593 165.917C221.593 152.149 232.978 141 247.016 141C261.055 141 272.422 152.149 272.422 165.917" fill="white"/>
<path d="M404.633 176.359C404.633 190.11 393.266 201.276 379.228 201.276C365.19 201.276 353.822 190.127 353.822 176.359C353.822 162.591 365.19 151.442 379.228 151.442C393.266 151.442 404.633 162.591 404.633 176.359Z" fill="white"/>
</g>
</g>
<defs>
<clipPath id="clip0_1436_1548">
<rect width="318.667" height="239.153" fill="white" transform="translate(91 141)"/>
</clipPath>
<clipPath id="clip1_1436_1548">
<rect width="1413.18" height="239.153" fill="white" transform="translate(91 141)"/>
</clipPath>
</defs>
</svg>
